<?xml version="1.0" standalone="no"?>
<!DOCTYPE svg PUBLIC "-//W3C//DTD SVG 20010904//EN"
 "http://www.w3.org/TR/2001/REC-SVG-20010904/DTD/svg10.dtd">
<svg version="1.0" xmlns="http://www.w3.org/2000/svg"
 width="700.000000pt" height="700.000000pt" viewBox="0 0 700.000000 700.000000"
 preserveAspectRatio="xMidYMid meet">
<metadata>
Created by potrace 1.14, written by Peter Selinger 2001-2017
</metadata>
<g transform="translate(0.000000,700.000000) scale(0.100000,-0.100000)"
fill="#000000" stroke="none">
<path d="M4168 6775 c-2 -1 -28 -5 -58 -8 -169 -17 -335 -76 -480 -171 -83
-55 -135 -99 -250 -215 -166 -167 -182 -203 -194 -421 -9 -160 -41 -273 -121
-435 -50 -103 -173 -278 -254 -365 -150 -161 -159 -291 -31 -461 102 -135 210
-215 346 -255 98 -28 280 -25 424 9 14 3 56 13 95 23 66 15 186 21 230 11 56
-13 131 -50 189 -91 163 -116 270 -304 304 -531 9 -66 9 -296 -1 -365 -23
-164 -86 -346 -239 -690 -116 -261 -142 -365 -142 -565 -1 -314 112 -573 354
-815 200 -201 407 -335 625 -405 117 -37 109 -33 95 -50 -8 -10 -31 -15 -71
-15 -33 0 -59 -4 -59 -9 0 -6 -14 -6 -32 -1 -18 4 -85 20 -148 35 -511 123
-896 459 -1103 966 -81 198 -166 500 -192 679 -3 25 -10 61 -15 80 -5 19 -11
58 -14 85 -4 28 -9 61 -11 75 -3 14 -7 34 -9 45 -8 41 -11 50 -32 90 -54 103
-194 101 -266 -2 -60 -88 -80 -156 -79 -273 0 -58 3 -114 5 -126 2 -11 7 -47
10 -80 10 -87 32 -219 51 -299 9 -38 18 -77 20 -85 22 -105 96 -309 161 -448
145 -308 338 -559 610 -792 324 -278 725 -451 1199 -517 17 -2 129 -6 250 -8
195 -3 277 1 393 20 17 3 49 8 70 11 77 12 200 47 299 85 98 38 248 124 289
165 11 11 29 27 40 35 57 42 183 199 233 289 113 205 203 485 236 730 3 25 8
56 10 70 16 93 20 163 19 385 0 222 -6 344 -19 425 -2 14 -7 45 -10 69 -5 46
-6 48 -35 211 -41 227 -151 711 -179 790 -5 14 -24 75 -41 135 -116 398 -335
891 -519 1164 -119 179 -270 373 -306 397 -65 42 -88 27 -220 -147 -117 -154
-215 -234 -345 -284 -262 -100 -477 -37 -661 195 -97 122 -158 271 -204 505
-3 14 6 8 31 -20 34 -38 58 -73 152 -220 95 -148 116 -177 166 -216 105 -84
210 -121 333 -118 65 2 85 7 165 47 201 98 333 293 387 572 6 30 14 71 17 90
15 78 8 234 -14 306 -26 86 -85 179 -143 226 -58 47 -373 235 -474 282 -221
105 -416 166 -605 192 -42 5 -228 13 -232 9z"/>
<path d="M1165 4704 c-87 -19 -197 -61 -215 -83 -3 -3 -33 -25 -67 -48 -138
-96 -253 -88 -508 32 -106 51 -110 52 -116 31 -8 -27 -3 -310 5 -356 19 -96
46 -162 108 -263 139 -225 190 -398 183 -627 -2 -69 -7 -143 -10 -165 -18
-114 -81 -323 -130 -430 -8 -16 -25 -59 -40 -95 -14 -36 -30 -74 -35 -85 -12
-28 -76 -211 -85 -245 -1 -3 -4 -12 -8 -20 -11 -28 -67 -265 -84 -360 -25
-136 -24 -462 1 -580 82 -383 281 -672 590 -855 213 -126 455 -188 731 -187
479 1 908 187 1191 517 217 252 345 639 359 1080 4 117 -7 198 -37 269 -33 79
-63 114 -104 122 -71 13 -106 -32 -119 -156 -3 -36 -8 -81 -10 -100 -2 -19 -7
-64 -10 -100 -12 -136 -21 -186 -46 -280 -39 -143 -126 -310 -225 -430 -184
-222 -464 -381 -732 -417 -81 -10 -248 -7 -324 6 -67 11 -227 58 -240 70 -4 3
54 6 130 7 251 1 371 17 493 64 67 27 153 79 199 122 45 42 110 122 110 135 0
6 7 16 15 23 20 17 82 182 100 265 44 214 37 438 -21 655 -8 30 -17 62 -19 70
-8 37 -88 268 -160 465 -66 178 -125 403 -141 535 -34 286 39 539 216 752 26
31 57 77 69 101 29 59 40 160 26 231 -6 31 -9 56 -7 56 2 0 -1 7 -8 15 -7 8
-10 15 -7 15 8 0 -26 98 -52 148 -37 73 -107 98 -201 72 -70 -18 -97 -22 -210
-25 -111 -3 -176 4 -353 40 -74 14 -157 18 -202 9z"/>
</g>
</svg>
