<?xml version="1.0" encoding="utf-8"?>
<!-- Generator: Adobe Illustrator 25.0.1, SVG Export Plug-In . SVG Version: 6.00 Build 0)  -->
<svg version="1.1" id="Capa_1" xmlns="http://www.w3.org/2000/svg" xmlns:xlink="http://www.w3.org/1999/xlink" x="0px" y="0px"
	 viewBox="0 0 100 100" style="enable-background:new 0 0 100 100;" xml:space="preserve">
<style type="text/css">
	.st0{fill:#3232AE;}
	.st1{fill:#04A59E;}
	.st2{fill:#05A69F;}
	.st3{fill:#010101;}
	.st4{fill:#060606;}
	.st5{fill:#F7F7F7;}
	.st6{fill:#20AFA9;}
	.st7{fill:#B4B4E1;}
	.st8{fill:#E2E2F3;}
	.st9{fill:#8B8BD1;}
	.st10{fill:#DEF3F2;}
	.st11{fill:#FDFDFD;}
</style>
<g>
	<path class="st0" d="M59.91,54.45c-2.38-0.57-4.29-1.91-5.92-3.67c-2.38-2.56-2.91-6.1-1.47-9.31c1.17-2.6,2.47-5.16,2.13-8.16
		c-0.18-1.58-0.72-2.95-1.93-4.02c-1.01-0.89-2.08-1.28-3.51-0.9c-2.23,0.59-4.47,0.82-6.22-1.32c-1.16-1.42-1.33-2.34-0.12-3.69
		c1.73-1.93,2.97-3.99,2.93-6.71c-0.02-1.25,0.94-2.11,1.8-2.94c3.67-3.55,8.02-2.96,12.25-0.81c0.79,0.4,1.51,0.92,2.29,1.35
		c1.84,1.01,2.23,2.67,1.95,4.53c-0.34,2.21-1.13,4.23-3.41,5.13c-1.39,0.55-3.27-0.25-4.09-1.59c-0.58-0.94-1.15-1.88-1.87-2.74
		c0.28,1.99,1.03,3.8,2.6,5.03c1.82,1.42,4.72,0.67,6.22-1.41c1.51-2.1,1.52-2.1,3.09-0.01c3.82,5.09,5.44,11.04,6.61,17.14
		c0.62,3.26,0.76,6.53,0.06,9.82c-1.37,6.41-4.77,8.93-11.36,8.91c-3.8-0.01-7.4-1.21-10.32-3.46c-4.58-3.54-6.77-8.54-7.05-14.33
		c-0.02-0.33,0.04-0.7,0.17-1.01c0.3-0.74,0.68-1.57,1.61-1.48c0.88,0.09,1.04,0.98,1.15,1.69c0.34,2.34,0.82,4.63,1.74,6.83
		c1.78,4.25,4.96,6.67,9.47,7.43c0.38,0.14,0.79,0.14,1.16,0.04c0.35-0.09,0.67,0.06,1.03,0.02c0.17,0.03,0.05-0.33,0.04-0.14
		c0,0.08-0.04,0.1-0.1,0.11C60.46,54.84,60.18,54.67,59.91,54.45z"/>
	<path class="st1" d="M23.89,27.03c0.77,0.35,1.33,0.64,1.92,0.87c1,0.39,1.92,0.45,2.88-0.32c1.02-0.83,2.28-1.11,3.62-0.8
		c1.36,0.32,2.75,0.46,4.09,0.08c0.96-0.27,1.37,0.13,1.65,0.92c0.45,1.25,0.76,2.59-0.17,3.65c-2.85,3.25-1.86,6.68-0.63,10.12
		c0.92,2.55,1.95,5.07,1.53,7.86c-0.54,3.64-2.55,5.31-6.23,5.3c-0.58,0-1.16,0-1.88,0c5.48,2.39,11.15-1.74,11.77-6.96
		c0.1-0.83,0.15-1.67,0.25-2.49c0.05-0.43,0.12-0.98,0.65-1.03c0.58-0.06,0.8,0.47,1,0.93c0.42,0.99,0.3,2.04,0.22,3.06
		c-0.24,2.81-1.11,5.52-3.04,7.51c-2.04,2.11-4.82,3.21-7.81,3.39c-6.73,0.4-11.56-4.58-10.62-11.62c0.29-2.19,0.97-4.27,1.87-6.32
		c1.35-3.11,1.85-6.28-0.29-9.4C23.77,30.44,23.72,28.8,23.89,27.03z"/>
	<path d="M42.01,71.04c1.45-1.55,2.6-3.2,3.58-4.95c0.57-1.02,1.43-1.47,2.57-1.28c1.13,0.19,1.51,1.02,0.82,1.91
		c-0.6,0.79-0.91,1.82-1.56,2.46c-1.63,1.62-0.7,2.99,0.15,4.39c1.23,2.04,1.83,4.21,1.74,6.6c-0.04,1-0.07,1.93-1.38,2
		c-1,0.05-1.88-0.95-1.94-2.14c-0.1-1.92-0.28-3.84-1.29-5.54c-0.33-0.57-0.52-1.36-1.64-0.99c-1,0.33-1.6,0.59-1.48,1.81
		c0.18,1.76-0.1,3.54,0.18,5.3c0.1,0.6,0.26,1.21-0.5,1.48c-0.66,0.24-1.27,0.09-1.77-0.4c-0.41-0.4-0.53-0.91-0.58-1.47
		c-0.45-4.67-0.36-9.34,0.12-14c0.05-0.47-0.44-1.46,0.74-1.37c1,0.08,2.06,0.19,2.1,1.54c0.04,1.08-0.05,2.16-0.05,3.24
		C41.84,70.06,41.62,70.5,42.01,71.04z"/>
	<path d="M6.55,75.97c-0.11,1.58-0.02,3.04,0.17,4.51c0.07,0.51,0.39,1.27-0.55,1.4c-0.77,0.1-1.49-0.04-1.8-0.9
		c-0.47-1.3-0.69-2.66-0.73-4.04c-0.06-2.55-0.08-5.1,0.2-7.64c0.06-0.59,0.09-0.82-0.67-0.87c-0.9-0.06-1.2-0.86-1.29-1.72
		c-0.1-0.97,0.53-1.26,1.27-1.48c2.26-0.68,4.56-0.77,6.83-0.15c2.38,0.64,4.31,4.12,4.09,7.13c-0.21,2.86-2.12,4.44-5.23,4.26
		C8.08,76.41,7.27,76.45,6.55,75.97z"/>
	<path class="st2" d="M22.52,88.42c0.91-1.28,1.89-1.75,2.91-2.06c3.2-0.99,6.49-1.61,9.84-1.79c10.3-0.57,20.58-0.07,30.84,0.74
		c7.12,0.56,14.24,1.19,21.39,0.71c3.62-0.24,6.99-1.2,9.38-4.23c0.25-0.32,0.56-0.67,0.98-0.36c0.47,0.34,0.25,0.77-0.02,1.16
		c-1.2,1.71-2.8,2.88-4.8,3.48c-4.74,1.42-9.6,1.62-14.48,1.22c-10.41-0.86-20.83-1.41-31.26-1.75c-6.06-0.2-12.11,0.22-18.14,0.8
		C26.97,86.55,24.97,87.63,22.52,88.42z"/>
	<path class="st3" d="M28.88,76.54c0.13-1.37,0.19-2.75,0.41-4.1c0.12-0.77-0.08-0.97-0.8-0.89c-0.59,0.07-1.15-0.08-1.15-0.8
		c0-0.76-0.07-1.88,0.91-1.92c1.76-0.07,1.69-1.24,1.74-2.37c0.04-0.93,0.12-1.63,1.34-1.52c1.22,0.11,1.61,0.81,1.53,1.88
		c-0.09,1.06-0.3,1.97,1.3,2.15c0.84,0.1,1.15,1.16,1.03,2.04c-0.15,1.09-1.02,0.51-1.53,0.48c-0.89-0.06-1.3,0.14-1.4,1.12
		c-0.18,1.81-0.5,3.6-0.48,5.42c0.01,1.09-0.01,2.21,1.5,2.41c0.4,0.06,0.69,0.39,0.68,0.85c-0.02,0.49-0.41,0.62-0.79,0.74
		c-1.13,0.37-3.11-0.63-3.63-1.91C29.08,78.98,28.73,77.8,28.88,76.54z"/>
	<path class="st3" d="M79.45,75.24c-0.01,1.33-0.39,2.62-0.52,3.92c-0.16,1.68-0.79,2.68-2.51,2.97c-1.42,0.24-3.36-0.44-4.16-1.68
		c-0.88-1.36-1.16-2.76-0.23-4.27c0.92-1.49,2.05-2.49,3.93-2.27c0.32,0.04,0.82,0.48,0.95-0.19c0.11-0.57,0.06-1.2-0.31-1.68
		c-0.35-0.45-0.75-0.04-1.04,0.12c-0.71,0.39-1.37,0.81-2.15,0.19c-0.34-0.27-0.86-0.53-0.77-0.98c0.08-0.39,0.49-0.69,0.92-0.89
		c2.84-1.29,5.63,0.38,5.88,3.72C79.47,74.56,79.45,74.9,79.45,75.24z"/>
	<path class="st3" d="M88.32,75.32c0.09,0.11,0.18,0.23,0.28,0.34c1.17,1.23,2.08,2.57,1.24,4.34c-0.86,1.82-2.58,1.95-4.29,1.93
		c-1.19-0.01-2.56-1.35-2.55-2.46c0.01-0.61-0.07-1.33,1.03-0.79c1.03,0.5,2.21,0.32,3.32,0.06c0.33-0.08,0.73-0.19,0.77-0.58
		c0.03-0.38-0.28-0.6-0.63-0.71c-0.56-0.18-1.1-0.43-1.67-0.56c-1.55-0.35-2.34-1.37-2.56-2.86c-0.25-1.74,0.45-3.26,1.94-3.93
		c1.3-0.59,2.65-0.66,3.86,0.38c0.86,0.75,1.84,1.41,1.63,2.76c-0.17,1.13-0.71,1.9-2.01,1.8c-0.59-0.08-0.78-0.54-0.93-1.02
		c-0.46-1.47-0.53-1.49-1.89-0.48C86.62,74.27,87.88,74.25,88.32,75.32z"/>
	<path d="M61.92,76.46c0.12-1.32,0.2-2.65,0.39-3.96c0.11-0.79-0.09-1.06-0.9-0.96c-0.67,0.08-1.4,0-1.36-0.89
		c0.03-0.8,0.01-1.89,1.18-1.87c1.61,0.02,1.69-0.93,1.78-2.13c0.05-0.68-0.29-1.85,1.17-1.69c1.25,0.14,1.49,0.94,1.41,1.98
		c-0.08,1.01-0.2,1.88,1.3,2.03c0.74,0.07,1.15,1.05,1.18,1.87c0.03,0.89-0.65,0.83-1.26,0.71c-1.27-0.25-1.85,0.14-1.87,1.54
		c-0.01,1.42-0.34,2.82-0.43,4.24c-0.09,1.35-0.32,2.83,1.65,3.19c0.3,0.05,0.58,0.39,0.56,0.79c-0.03,0.41-0.35,0.55-0.67,0.69
		c-1.16,0.49-2.78-0.33-3.44-1.8C62.08,79.01,61.8,77.78,61.92,76.46z"/>
	<path class="st3" d="M17.62,76.9c0.14-2.27,0.52-4.46,2.17-6.23c0.63-0.68,1.3-0.97,2.22-0.67c1,0.32,1.64,1.05,1.71,1.99
		c0.06,0.8-0.35,1.57-1.25,1.99c-0.66,0.31-1.6,0.29-1.83,1.27c-0.32,1.33-0.84,2.66-0.31,4.04c0.27,0.71,0.55,1.59,1.64,1.03
		c0.49-0.25,0.81-0.27,1.06,0.28c0.28,0.64-0.17,0.93-0.59,1.16c-1.32,0.72-3.07,0.05-3.95-1.48C17.89,79.24,17.53,78.13,17.62,76.9
		z"/>
	<path class="st3" d="M55.9,76.36c0,1.52-0.03,3.04,0.02,4.56c0.01,0.48-0.02,0.93-0.43,1.16c-0.44,0.24-0.93,0.18-1.38-0.12
		c-0.86-0.56-1.16-1.4-1.27-2.36c-0.32-2.79-0.27-5.58-0.01-8.37c0.06-0.67-0.38-1.68,1.02-1.59c1.34,0.09,2.11,0.68,2.12,1.88
		c0.02,1.62,0.01,3.23,0.01,4.85C55.94,76.36,55.92,76.36,55.9,76.36z"/>
	<path class="st4" d="M55.52,67.43c-1.05-0.11-2.58-1.39-2.34-2.01c0.33-0.83,1.19-0.37,1.78-0.37c0.96,0,1.72,0.47,1.62,1.61
		C56.53,67.34,56.05,67.53,55.52,67.43z"/>
	<path class="st5" d="M88.32,75.32c-0.85-0.48-1.67-1.01-2.65-1.22c-0.23-0.05-0.46-0.19-0.62-0.35c-0.05-0.04,0.09-0.41,0.22-0.48
		c0.81-0.43,1.57-1.02,2.58-0.88c0.53,0.07,0.21,0.39,0.22,0.63c0,0.74,0.04,1.47,0.64,2.02C88.58,75.14,88.45,75.23,88.32,75.32z"
		/>
	<path class="st6" d="M31.19,87.05c-1.82,0.62-3.71,0.99-5.77,1.76C26.63,87.53,29.54,86.63,31.19,87.05z"/>
	<path class="st7" d="M59.91,54.45c0.41,0.1,0.81,0.2,1.22,0.29c-0.83,0.23-1.63,0.43-2.43,0.03C59.08,54.57,59.6,54.89,59.91,54.45
		z"/>
	<path class="st8" d="M48.98,18.71c-0.07,0.62-0.52,0.8-1.04,0.79c-0.51-0.01-1.04-0.17-0.98-0.83c0.09-1,1.12-0.02,1.51-0.66
		C48.6,17.82,48.9,18.38,48.98,18.71z"/>
	<path class="st9" d="M54.13,17.77c0.25,0.2,0.45,0.4,0.4,0.71C53.94,18.48,54.12,18.06,54.13,17.77z"/>
	<path class="st10" d="M33.33,28.55c-0.04,0.47-0.34,0.72-0.77,0.73c-0.38,0.01-0.66-0.22-0.7-0.62c-0.08-0.77,0.63-0.44,0.95-0.61
		C33.15,27.87,33.3,28.22,33.33,28.55z"/>
	<path class="st11" d="M8.21,73.4c-1.77,0.04-1.82-0.03-1.62-1.81c0.12-1.02,0.16-2.05,0.26-3.07c0.04-0.37,0.02-0.81,0.61-0.81
		c1.58,0,3.15,0,4.24,1.46c1.28,1.71,0.75,3.41-1.3,3.95C9.69,73.3,8.94,73.31,8.21,73.4z"/>
	<path class="st5" d="M76.85,75.71c-0.25,1.28-0.52,2.32-0.63,3.38c-0.12,1.08-0.82,1.16-1.57,0.97c-0.84-0.21-0.98-0.97-0.69-1.66
		C74.47,77.22,75.24,76.23,76.85,75.71z"/>
</g>
</svg>
