<?xml version="1.0" encoding="utf-8"?>
<!-- Generator: Adobe Illustrator 25.0.1, SVG Export Plug-In . SVG Version: 6.00 Build 0)  -->
<svg version="1.1" id="Capa_1" xmlns="http://www.w3.org/2000/svg" xmlns:xlink="http://www.w3.org/1999/xlink" x="0px" y="0px"
	 viewBox="0 0 100 100" style="enable-background:new 0 0 100 100;" xml:space="preserve">
<style type="text/css">
	.st0{fill:#3232AE;}
	.st1{fill:#04A59E;}
	.st2{fill:#B4B4E1;}
	.st3{fill:#E2E2F3;}
	.st4{fill:#8B8BD1;}
	.st5{fill:#DEF3F2;}
</style>
<path class="st0" d="M72.54,85.83c-4.55-1.08-8.19-3.65-11.31-7.01c-4.54-4.9-5.56-11.65-2.81-17.78c2.23-4.96,4.72-9.85,4.07-15.59
	c-0.35-3.01-1.37-5.64-3.69-7.67c-1.94-1.7-3.97-2.44-6.7-1.72c-4.27,1.12-8.54,1.57-11.89-2.52c-2.22-2.71-2.55-4.46-0.24-7.04
	c3.3-3.69,5.68-7.62,5.59-12.81c-0.04-2.39,1.8-4.03,3.44-5.62c7-6.79,15.33-5.66,23.41-1.55c1.5,0.76,2.89,1.76,4.37,2.57
	c3.52,1.92,4.26,5.09,3.72,8.66c-0.64,4.22-2.15,8.07-6.52,9.81c-2.66,1.06-6.25-0.48-7.81-3.03c-1.1-1.8-2.2-3.6-3.57-5.24
	c0.54,3.79,1.96,7.26,4.97,9.61c3.49,2.72,9.02,1.27,11.89-2.69c2.89-4,2.91-4.01,5.91-0.01c7.3,9.73,10.4,21.09,12.63,32.76
	c1.19,6.22,1.46,12.48,0.12,18.76C95.49,89.94,89,94.75,76.4,94.72c-7.26-0.02-14.14-2.32-19.71-6.62
	c-8.76-6.76-12.94-16.31-13.47-27.38c-0.03-0.64,0.08-1.33,0.32-1.92c0.57-1.41,1.3-3.01,3.08-2.83c1.69,0.17,1.99,1.87,2.19,3.24
	c0.66,4.47,1.57,8.85,3.33,13.05c3.41,8.12,9.47,12.75,18.09,14.19c0.73,0.26,1.5,0.27,2.22,0.08c0.66-0.17,1.27,0.11,1.96,0.04
	c0.32,0.06,0.09-0.64,0.07-0.26c-0.01,0.16-0.07,0.2-0.18,0.21C73.59,86.58,73.05,86.25,72.54,85.83z"/>
<path class="st1" d="M3.72,33.45c1.47,0.67,2.55,1.22,3.67,1.66c1.92,0.74,3.68,0.86,5.5-0.62c1.96-1.59,4.35-2.13,6.91-1.52
	c2.59,0.62,5.25,0.88,7.82,0.16c1.84-0.52,2.61,0.25,3.16,1.76c0.87,2.38,1.46,4.95-0.32,6.98c-5.44,6.21-3.56,12.77-1.19,19.33
	c1.76,4.88,3.72,9.7,2.93,15.01c-1.03,6.96-4.88,10.15-11.9,10.13c-1.11,0-2.22,0-3.59,0c10.46,4.58,21.31-3.33,22.49-13.3
	c0.19-1.59,0.28-3.18,0.48-4.77c0.1-0.83,0.23-1.87,1.24-1.97c1.11-0.11,1.53,0.89,1.91,1.77c0.81,1.9,0.57,3.9,0.41,5.85
	c-0.45,5.37-2.12,10.54-5.8,14.34c-3.9,4.03-9.21,6.14-14.93,6.48C9.64,95.49,0.41,85.97,2.2,72.53c0.56-4.19,1.86-8.16,3.57-12.08
	c2.59-5.93,3.54-12-0.55-17.96C3.5,39.97,3.4,36.83,3.72,33.45z"/>
<path class="st2" d="M72.54,85.83c0.77,0.19,1.55,0.38,2.32,0.56c-1.58,0.45-3.12,0.82-4.64,0.05
	C70.95,86.07,71.94,86.68,72.54,85.83z"/>
<path class="st3" d="M51.66,17.56c-0.13,1.19-1,1.53-1.99,1.52c-0.98-0.01-1.98-0.32-1.87-1.58c0.16-1.92,2.13-0.03,2.89-1.26
	C50.93,15.86,51.5,16.93,51.66,17.56z"/>
<path class="st4" d="M61.5,15.75c0.48,0.37,0.87,0.76,0.76,1.36C61.13,17.12,61.48,16.32,61.5,15.75z"/>
<path class="st5" d="M21.76,36.35c-0.07,0.9-0.64,1.37-1.46,1.4c-0.72,0.03-1.26-0.42-1.34-1.18c-0.16-1.46,1.2-0.84,1.81-1.17
	C21.41,35.05,21.69,35.73,21.76,36.35z"/>
</svg>
